<?xml version="1.0" standalone="no"?>
<!DOCTYPE svg PUBLIC "-//W3C//DTD SVG 20010904//EN"
 "http://www.w3.org/TR/2001/REC-SVG-20010904/DTD/svg10.dtd">
<svg version="1.0" xmlns="http://www.w3.org/2000/svg"
 width="700.000000pt" height="700.000000pt" viewBox="0 0 700.000000 700.000000"
 preserveAspectRatio="xMidYMid meet">
<metadata>
Created by potrace 1.14, written by Peter Selinger 2001-2017
</metadata>
<g transform="translate(0.000000,700.000000) scale(0.100000,-0.100000)"
fill="#000000" stroke="none">
<path d="M3295 6990 c-1520 -96 -2792 -1140 -3179 -2610 -126 -478 -144 -1042
-50 -1535 194 -1011 813 -1873 1719 -2391 391 -224 866 -376 1340 -430 200
-22 549 -22 750 0 809 91 1528 437 2100 1010 563 564 913 1295 1001 2091 34
312 18 719 -42 1030 -254 1321 -1244 2383 -2539 2725 -340 90 -757 131 -1100
110z m833 -814 c34 -18 65 -51 86 -93 14 -28 16 -78 16 -361 l0 -330 -162
-175 -163 -176 -487 0 -488 -1 0 508 c0 524 -3 559 -42 615 l-19 27 616 0
c510 0 621 -2 643 -14z m-1383 -20 c54 -23 75 -67 75 -158 l0 -78 -130 0 -130
0 0 78 c0 90 21 135 73 157 41 18 69 18 112 1z m2265 -223 c-49 -120 -183
-447 -298 -728 l-209 -510 321 -7 c176 -4 332 -8 346 -10 22 -3 -40 -73 -505
-568 -292 -311 -699 -747 -905 -968 -206 -221 -376 -398 -378 -394 -1 4 131
330 293 725 162 394 295 719 295 722 0 3 -93 6 -207 6 -115 1 -270 4 -346 8
l-137 6 397 425 c746 799 1413 1510 1418 1510 2 0 -36 -98 -85 -217z m-2190
-713 l0 -180 -105 0 -105 0 0 -55 0 -55 591 -2 592 -3 -138 -147 -137 -148
-415 0 c-455 0 -457 0 -488 -60 -14 -26 -15 -81 -13 -391 l3 -361 33 -29 32
-29 500 0 c275 0 500 -2 500 -5 0 -3 -23 -62 -51 -130 l-52 -125 -99 0 c-175
0 -198 -21 -198 -187 0 -62 5 -123 11 -136 14 -31 59 -57 98 -57 17 0 31 -2
31 -4 0 -22 -56 -127 -71 -131 -10 -3 -30 -20 -44 -36 -24 -29 -25 -37 -25
-148 0 -186 7 -191 290 -191 288 0 300 8 300 192 0 115 -9 142 -56 173 l-31
20 100 108 100 107 18 -29 c36 -60 42 -61 287 -61 l224 0 34 34 34 34 0 116
c0 175 -13 188 -197 196 l-122 5 195 210 c107 116 215 230 240 255 l44 45 -2
-985 -3 -985 -30 -54 c-31 -56 -88 -106 -148 -128 -24 -8 -281 -12 -982 -12
l-950 -1 -50 24 c-27 12 -67 41 -87 64 -74 82 -68 -58 -68 1686 l0 1571 24 50
c21 45 48 76 98 114 37 28 96 40 191 41 l97 0 0 -180z m1165 -3980 l0 -455
-518 -3 c-490 -2 -521 -1 -561 17 -47 20 -87 66 -105 120 -7 23 -11 155 -11
408 l0 373 598 -2 597 -3 0 -455z m445 80 c0 -409 -2 -423 -53 -478 -44 -48
-89 -62 -192 -62 l-95 0 0 460 0 460 170 0 170 0 0 -380z"/>
<path d="M2624 3493 c-12 -2 -34 -18 -50 -34 -28 -29 -29 -35 -32 -135 -4
-116 5 -152 46 -184 23 -19 41 -20 252 -20 l228 0 30 28 c35 33 48 104 39 210
-13 131 -37 142 -299 141 -106 -1 -203 -4 -214 -6z"/>
<path d="M2598 2974 c-45 -24 -58 -62 -58 -169 0 -114 15 -156 65 -179 43 -21
425 -23 464 -3 54 27 66 59 66 176 0 187 -6 191 -297 191 -169 -1 -219 -4
-240 -16z"/>
<path d="M4014 2956 l-34 -34 0 -111 c0 -196 8 -201 295 -201 289 0 295 4 295
193 l0 119 -34 34 -34 34 -227 0 -227 0 -34 -34z"/>
<path d="M2624 2483 c-12 -2 -34 -18 -50 -34 -28 -29 -29 -35 -32 -135 -4
-116 5 -152 46 -184 23 -19 41 -20 252 -20 l228 0 30 28 c35 33 48 104 39 210
-13 131 -37 142 -299 141 -106 -1 -203 -4 -214 -6z"/>
<path d="M3334 2476 c-55 -25 -64 -48 -64 -173 0 -193 0 -193 299 -193 l221 0
32 29 33 29 3 114 c4 122 -6 158 -51 188 -32 22 -428 26 -473 6z"/>
<path d="M4070 2483 c-78 -25 -90 -52 -90 -194 l0 -111 34 -34 34 -34 227 0
227 0 34 34 34 34 0 111 c0 194 -11 201 -292 200 -106 0 -200 -3 -208 -6z"/>
</g>
</svg>
